<svg xmlns="http://www.w3.org/2000/svg" viewBox="0 0 2000 2000"><rect width="1600" height="1600" x="156.193" y="198.731" fill="#6556ff" opacity=".2" rx="799.999"/><rect width="876.309" height="700.622" x="124.879" y="433.949" fill="#fff" rx="47.274" transform="rotate(-180 563.034 784.26)"/><path fill="#090817" d="M953.914,1138.571H172.152a51.331,51.331,0,0,1-51.273-51.273V481.224a51.331,51.331,0,0,1,51.273-51.274H953.914a51.331,51.331,0,0,1,51.273,51.274V1087.3A51.33,51.33,0,0,1,953.914,1138.571ZM172.152,437.95a43.323,43.323,0,0,0-43.273,43.274V1087.3a43.323,43.323,0,0,0,43.273,43.273H953.914a43.323,43.323,0,0,0,43.273-43.273V481.224a43.323,43.323,0,0,0-43.273-43.274Z"/><circle cx="409.44" cy="485.562" r="23.12" fill="#080717"/><circle cx="303.84" cy="485.562" r="23.12" fill="#080717"/><circle cx="198.239" cy="485.562" r="23.12" fill="#080717"/><rect width="624.878" height="121.139" x="250.594" y="723.691" fill="#fff" rx="60.569" transform="rotate(-180 563.034 784.26)"/><path fill="#090817" d="M814.9,848.829H311.164a64.569,64.569,0,1,1,0-129.137H814.9a64.569,64.569,0,1,1,0,129.137ZM311.164,727.692a56.569,56.569,0,1,0,0,113.137H814.9a56.569,56.569,0,1,0,0-113.137Z"/><path fill="#080717" d="M336.549,814.466A37.946,37.946,0,1,1,374.5,776.521,37.989,37.989,0,0,1,336.549,814.466Zm0-55.891A17.946,17.946,0,1,0,354.5,776.521,17.967,17.967,0,0,0,336.549,758.575Z"/><path fill="#080717" d="M378.123,836.009a9.965,9.965,0,0,1-7.545-3.434l-24.1-27.672a10,10,0,0,1,15.078-13.14l24.109,27.679a10,10,0,0,1-7.537,16.567Z"/><g><path fill="#fff" d="M705.394,487.77l-7.365,86.15a5.1,5.1,0,0,1-9.849,1.38l-28.37-74.532a141.459,141.459,0,0,1-15.137.829,139.84,139.84,0,1,1,60.721-13.827Z"/><path fill="#090817" d="M692.867,582.6a8.923,8.923,0,0,1-8.426-5.871l-27.283-71.68c-4.213.367-8.4.551-12.486.551-79.363,0-143.93-64.567-143.93-143.93s64.567-143.93,143.93-143.93S788.6,282.3,788.6,361.665a144.841,144.841,0,0,1-79.416,128.7l-7.171,83.9a8.946,8.946,0,0,1-7.807,8.238A9.273,9.273,0,0,1,692.867,582.6Zm-33.055-85.828a4,4,0,0,1,3.737,2.578l28.369,74.535a1.1,1.1,0,0,0,2.125-.3l7.365-86.148a4,4,0,0,1,2.248-3.262,136.786,136.786,0,0,0,76.947-122.5c0-74.953-60.978-135.93-135.931-135.93s-135.93,60.977-135.93,135.93S569.721,497.6,644.672,497.6a137.953,137.953,0,0,0,14.711-.805A3.88,3.88,0,0,1,659.812,496.767Z"/></g><g><rect width="39.582" height="160.126" x="624.882" y="280.505" fill="#080717" rx="8.195" transform="rotate(-45 644.672 360.568)"/><rect width="39.582" height="160.126" x="624.882" y="280.505" fill="#080717" rx="8.195" transform="rotate(45 644.673 360.567)"/></g><g><path fill="#080717" d="M1227.391,767.168s36.376,92.2-41.3,194.9-90.958,169.392,0,197.609,213.632,0,213.632,0l60.66-157.605L1394.64,711.414Z"/><path fill="#6556ff" d="M1394.64,963.169s-178.33-20.641-276.506,116.5S899.1,1798.731,899.1,1798.731H1146.87Z"/><path fill="#fff" d="M1045.82,1779.783c13.609-125.129,33.862-273.275,64.9-439.251,40.271-215.329,62.485-267.024,112.874-309.76,33.424-28.346,75.619-49.621,121.342-63.668a45.043,45.043,0,0,0,32.14-42.926V807.368h163.739V911.426A48.073,48.073,0,0,0,1577.681,958c44.564,10.949,83.671,30.023,111.523,57.539,82.6,81.611,50.781,233.419,33.862,330.072-14.055,80.292-33.666,103.479-45.377,190.427-13.628,101.189-2.813,186.711,8.693,243.746Z"/><path fill="#090817" d="M1686.383,1783.782H1045.82a4,4,0,0,1-3.976-4.433c15.914-146.313,37.765-294.2,64.945-439.551,36.48-195.047,57-263.543,114.223-312.078,32.324-27.414,74.769-49.7,122.75-64.442a40.911,40.911,0,0,0,29.316-39.1V807.368a4,4,0,0,1,4-4h163.738a4,4,0,0,1,4,4V911.427a44.045,44.045,0,0,0,33.817,42.691c47.094,11.563,86.3,31.82,113.383,58.574,80.156,79.192,54.484,223.75,37.5,319.411l-2.508,14.2c-6.461,36.9-14.137,61.988-21.563,86.246-8.984,29.363-17.472,57.1-23.789,104.023-10.695,79.41-7.785,160.969,8.649,242.418a4,4,0,0,1-3.922,4.793Zm-636.1-8h631.231c-15.77-80.73-18.391-161.543-7.785-240.281,6.406-47.574,14.988-75.609,24.07-105.293,7.351-24.027,14.957-48.871,21.328-85.289l2.516-14.215c16.691-94.012,41.918-236.082-35.25-312.324-26.051-25.738-63.973-45.274-109.664-56.5a52.024,52.024,0,0,1-39.911-50.457V811.368H1381.078V924.177a48.873,48.873,0,0,1-34.965,46.75c-46.953,14.429-88.426,36.176-119.929,62.894-55.356,46.95-75.45,114.532-111.528,307.446C1087.785,1484.95,1066.129,1631.122,1050.281,1775.782Z"/><path fill="#fff" d="M1704.48,600.856c-2.083-145.1-121.4-261.045-266.507-258.961a262.783,262.783,0,0,0-70.98,10.843c-94.7,8.421-172.739,81.39-186.3,177.369-19.623,138.92-14.872,325.108,141.529,357.17,254.679,52.207,350.644-157.662,350.644-157.662l.011-.035A261.481,261.481,0,0,0,1704.48,600.856Z"/><path fill="#090817" d="M1400.348,899.528a392.5,392.5,0,0,1-78.926-8.332c-86.793-17.793-182.352-94.98-144.688-361.648,13.789-97.606,91.684-171.883,189.5-180.758a266.731,266.731,0,0,1,310.239,382.543c-1.727,3.742-25.868,54.5-80.883,99.781C1554.941,864.563,1490.793,899.524,1400.348,899.528Zm41.5-553.66c-1.278,0-2.543.008-3.821.028a259.106,259.106,0,0,0-69.9,10.679,4.188,4.188,0,0,1-.781.149c-94.282,8.379-169.407,79.91-182.692,173.941-36.8,260.516,54.938,335.59,138.375,352.7,129.832,26.61,216.977-16.964,267.215-58.207,53.375-43.828,77.664-94.4,78.934-97.093a3.419,3.419,0,0,1,.183-.387,258.819,258.819,0,0,0,31.117-126.758h0a258.755,258.755,0,0,0-258.628-255.047Z"/><path fill="#6556ff" d="M1356.312,957.464s26.947,40.887,104.074,44.6,98.509-53.312,98.509-53.312,137.055,9.5,185.056,103.88c18.785,36.937,16.853,72.9,15.648,89.437-7.939,108.97-29.561,344.522-63.68,655.394l-656.786.646c17.481-142.7,45.914-374.576,50.179-409.484,23.229-190.129,34.294-281.986,109.03-353.109C1250.383,986,1312.53,966.288,1356.312,957.464Z"/><path fill="#fff" d="M1021.168,1008.263C979.849,970.254,860,861.57,790.787,823.163c-11.9-6.606-52.832-29.318-66.355-16.853-2.369,2.184-5.362,6.8-4.956,11.77.584,7.14,7.88,11.34,19.274,18.573,0,0,19.888,12.022,33.7,22.846a203.277,203.277,0,0,1,27,25.614s-35.93,24.778-39.647,39.646,2.479,24.16,2.479,24.16-14.868,14.249-7.434,31.594c0,0-13.629,21.063-4.956,39.028s25.089,18.895,32.523,16.417c0,0,31.9,41.2,66.6,35l48.94,42.745a153.345,153.345,0,0,0,57.543-21.191C999.562,1065.093,1016.159,1022.913,1021.168,1008.263Z"/><path fill="#090817" d="M897.959,1117.7a4,4,0,0,1-2.631-.988l-47.535-41.52c-31.658,4.25-59.734-26.273-66.846-34.718-10.187,2.043-26.031-1.348-34.648-19.2-8.1-16.769.855-35.324,4.123-41.129-5.2-14.734,2.978-26.984,7.047-31.867-1.858-4.222-4.44-12.883-1.537-24.492,3.351-13.406,27.744-32.223,37.546-39.336a195.951,195.951,0,0,0-23.492-21.808c-13.47-10.551-33.109-22.45-33.3-22.571l-2.008-1.269c-10.723-6.785-18.471-11.684-19.184-20.4-.521-6.379,3.029-12.086,6.231-15.035,14.025-12.922,47.248,3.106,71.007,16.3,64.311,35.684,172.426,131.633,231.147,185.648a4,4,0,0,1,1.078,4.239c-7.207,21.082-25.535,60.336-67.338,86.351a156.411,156.411,0,0,1-59.043,21.75A4.082,4.082,0,0,1,897.959,1117.7Zm-48.94-50.746a3.988,3.988,0,0,1,2.631.988l47.526,41.512a148.356,148.356,0,0,0,54.213-20.34c38.13-23.734,55.724-59.144,63.13-79.695C957.646,955.345,851.732,861.56,788.846,826.661c-43.774-24.3-57.444-21.332-61.7-17.41-1.635,1.508-3.965,5.016-3.68,8.5.371,4.535,5.291,7.84,15.488,14.293l1.943,1.23c.745.45,20.178,12.223,34.026,23.071a206.3,206.3,0,0,1,27.535,26.117,4,4,0,0,1-.725,5.941c-9.648,6.656-35.291,26.34-38.037,37.321-3.2,12.8,1.733,20.671,1.944,21a4.034,4.034,0,0,1-.578,5.078c-.516.5-12.75,12.609-6.526,27.132a4.008,4.008,0,0,1-.314,3.743c-.123.191-12.287,19.437-4.717,35.121,8.043,16.664,22.689,16.023,27.658,14.359a4.013,4.013,0,0,1,4.424,1.348c.305.39,30.853,39.168,62.732,33.512A3.893,3.893,0,0,1,849.019,1066.958Z"/><path fill="#6556ff" d="M1566.319,957.465c145.625,5.273,192.9,55.681,210.392,83.463,97.863,155.424-142.116,546.571-359.07,539.744-5.433-.171-10.276-.8-14.708-1.307-108.656-12.542-182.542-85.046-238.044-142.415-135.111-139.66-243.167-274.289-297.355-343.817l139.854-102.139,426.556,311.453Z"/><path fill="#080717" d="M1289.34,396.094s-34.691,80.534,30.974,121.42L1480.143,558.4s11.15-68.144,29.735-81.153c-7.1,101.156,8.253,132.865,26.4,140.13,18.546,7.426,36.321-12.161,55.629-.869,21.788,12.744,28.238,54.7,13.038,81.7-2.431,4.319-12.075,21.452-27.814,23.469-14.708,1.884-22.16-11.042-33.03-8.692-16.472,3.56-22.135,38.166-23.469,46.937-16.942,111.395-29.983,197.133,21.463,260.675,62.709,77.455,164.158,30.44,201.368,105.25,43.72,87.9-8.738,213.472-8.738,213.472s150.567-63.072,143.133-225.619-168.168-150.359-117.536-320-34.752-584.468-426.942-459.561c-3.723-.151-88.538-2.153-131.9,66.526-30.583,48.443-19.925,99.392-17.453,110.029Z"/><path fill="#080717" d="M1503.258,621.614a3.989,3.989,0,0,1-2.836-1.179c-40.61-40.848-88.957-24.739-89.445-24.575a4,4,0,1,1-2.618-7.562c.532-.188,53.633-17.871,97.735,26.5a4,4,0,0,1-2.836,6.82Z"/><path fill="#080717" d="M1461.789,658.3c-5.7,0-10.73-3.676-14.809-6.66a53.227,53.227,0,0,0-5.566-3.739c-6.633-3.636-14.543.028-14.625.063a4,4,0,1,1-3.492-7.195c.465-.227,11.637-5.528,21.961.117a60.11,60.11,0,0,1,6.449,4.3c7.281,5.332,10.5,6.922,15.309,2.566a4,4,0,0,1,5.367,5.938C1468.66,657.048,1465.109,658.3,1461.789,658.3Z"/><circle cx="1432.915" cy="662.522" r="24.412" fill="#080717"/><path fill="#080717" d="M1197.687,600.837A4,4,0,0,1,1195,593.88a80.861,80.861,0,0,1,88.906-13.375,4,4,0,1,1-3.4,7.242,72.87,72.87,0,0,0-80.125,12.047A3.981,3.981,0,0,1,1197.687,600.837Z"/><path fill="#080717" d="M1216.512,639.579c-3.926,0-7.969-1.586-11.817-6.246a4,4,0,0,1,6.172-5.094c4.141,5.016,7.547,3.895,15.516-.32a59.923,59.923,0,0,1,7.011-3.32c11.012-4.1,21.313,2.769,21.743,3.062a4,4,0,0,1-4.485,6.625h0c-.074-.043-7.359-4.82-14.476-2.187a53.065,53.065,0,0,0-6.055,2.894C1226.184,637.071,1221.441,639.579,1216.512,639.579Z"/><circle cx="1242.468" cy="647.796" r="24.412" fill="#080717"/><path fill="#080717" d="M1343.91,717.384c-9.238,0-29.734-1.059-34.969-10.172-5.668-9.879,12.411-50.649,20.446-67.719a4,4,0,0,1,7.234,3.406c-11.828,25.133-22.98,55.387-20.727,60.36,2.747,4.777,20.344,6.422,31.372,6.074a3.941,3.941,0,0,1,4.132,3.859,4,4,0,0,1-3.859,4.133C1346.754,717.353,1345.5,717.384,1343.91,717.384Z"/><ellipse cx="1469" cy="727.175" fill="#6556ff" rx="22.015" ry="33.725" transform="rotate(-89.475 1469.006 727.173)"/><ellipse cx="1221.979" cy="718.783" fill="#6556ff" rx="22.015" ry="33.725" transform="rotate(-89.475 1221.984 718.782)"/><path fill="#080717" d="M1350.519,811.368a4.2,4.2,0,0,1-.9-.1,4,4,0,0,1-3-4.789c.25-1.094,6.309-26.872,23.824-37.02,7.614-4.406,16.153-5.219,25.368-2.4a4,4,0,1,1-2.336,7.648c-7.106-2.164-13.325-1.621-19,1.66-14.5,8.383-20,31.66-20.059,31.895A4,4,0,0,1,1350.519,811.368Z"/><path fill="#fff" d="M1460.387,1453.228a3.945,3.945,0,0,1-1.293-.215,4,4,0,0,1-2.492-5.078c20.042-58.766-38.106-115.438-38.7-116l-296.121-252.473a4,4,0,0,1,5.188-6.086L1423.266,1326a176.825,176.825,0,0,1,28.671,37.941c17.024,30.2,21.254,60.137,12.235,86.579A4,4,0,0,1,1460.387,1453.228Z"/><path fill="#fff" d="M1420.668,1333.044a4,4,0,0,1-3.063-6.566l172.219-205.668a4,4,0,0,1,6.133,5.132L1423.738,1331.61A3.987,3.987,0,0,1,1420.668,1333.044Z"/><path fill="#fff" d="M1417.352,1604.493a116.284,116.284,0,0,1-18.25-1.4c-125.051-19.828-353.368-288.637-363.024-300.07a4,4,0,0,1,6.109-5.165c.59.7,59.657,70.438,133.188,141.672,96.891,93.86,174.687,147.688,224.977,155.664,63.089,9.961,141.437-40.714,196.039-85.023a954.321,954.321,0,0,0,105.1-100.4,4,4,0,0,1,6.031,5.25C1700.477,1423.122,1541.148,1604.493,1417.352,1604.493Z"/><path fill="#fff" d="M1039.137,1802.114a4,4,0,0,1-3.957-4.609l64.281-417.715a4,4,0,1,1,7.906,1.219l-64.281,417.715A4,4,0,0,1,1039.137,1802.114Z"/><path fill="#fff" d="M1197.687,462.661a4,4,0,0,1-3.753-5.379,181.117,181.117,0,0,1,20.789-38.1c18.625-26.317,41.617-43.571,66.5-49.887a4,4,0,1,1,1.968,7.758c-55.785,14.16-81.492,82.3-81.746,82.992A4,4,0,0,1,1197.687,462.661Z"/><path fill="#fff" d="M1394.641,523.063a3.929,3.929,0,0,1-1.575-.324c-67.031-28.722-57.316-118.465-57.211-119.367a4,4,0,0,1,7.946.93c-.1.844-9.094,84.726,52.414,111.086a4,4,0,0,1-1.574,7.675Z"/><path fill="#fff" d="M1456.465,523.063a4.038,4.038,0,0,1-1.293-.214c-23.344-7.985-41.914-27.407-53.7-56.164a161.61,161.61,0,0,1-10.813-41.079,4,4,0,0,1,7.961-.793c.074.727,7.9,72.942,59.137,90.465a4,4,0,0,1-1.293,7.785Z"/><path fill="#fff" d="M1643.687,1027.638a3.966,3.966,0,0,1-1.347-.235c-126.289-45.242-86.621-256.617-86.207-258.746a4,4,0,1,1,7.851,1.531c-.4,2.063-38.785,206.754,81.051,249.684a4,4,0,0,1-1.348,7.766Z"/><path fill="#fff" d="M1799.219,1206.458a4,4,0,0,1-3.774-5.328c.422-1.2,41-120.578-53.945-174.008-99.434-55.949-125.6-156.141-125.852-157.144a4,4,0,0,1,7.758-1.954c.246.973,25.672,97.918,122.016,152.129,100.844,56.743,58.015,182.371,57.57,183.633A4,4,0,0,1,1799.219,1206.458Z"/><path fill="#fff" d="M1229.254,966.063a4,4,0,0,1-2.281-7.289c31.175-21.586,27.445-82.312,27.4-82.921a4,4,0,0,1,3.719-4.262,3.926,3.926,0,0,1,4.265,3.715c.184,2.679,4.09,65.867-30.832,90.047A3.987,3.987,0,0,1,1229.254,966.063Z"/><path fill="#080717" d="M785.48,899.677a4,4,0,0,1-2.656-6.992c1-.895,24.951-21.711,55.182-10.8a4,4,0,1,1-2.715,7.523c-25.809-9.32-46.947,9.078-47.158,9.262A3.984,3.984,0,0,1,785.48,899.677Z"/><path fill="#080717" d="M762.3,952.919a4,4,0,0,1-2.391-7.211c2.453-1.82,24.295-17.871,35.973-20.3,11.98-2.492,34.437,3.981,35.385,4.258a4,4,0,0,1-2.239,7.68c-5.941-1.731-23.2-5.828-31.515-4.106-8.432,1.758-26.559,14.235-32.832,18.895A3.991,3.991,0,0,1,762.3,952.919Z"/><path fill="#080717" d="M754.857,984.513a4,4,0,0,1-1.255-7.8c1.078-.36,26.531-8.735,39.367-7.231,12.478,1.442,26.474,7.082,27.064,7.321a4,4,0,0,1-3.01,7.414c-.134-.055-13.593-5.473-24.972-6.789-9.168-1.071-29.053,4.6-35.94,6.879A3.917,3.917,0,0,1,754.857,984.513Z"/><path fill="#080717" d="M782.424,1039.958a4,4,0,0,1-2.821-6.836l4.569-4.543a10.137,10.137,0,0,0,.58-13.672l-5.379-6.34a4,4,0,1,1,6.1-5.171l5.378,6.339a18.171,18.171,0,0,1-1.041,24.516l-4.568,4.543A3.982,3.982,0,0,1,782.424,1039.958Z"/><path fill="#080717" d="M1562.644,702.794a4,4,0,0,1-2.152-7.375,23.657,23.657,0,0,0-10.906-43.633,4,4,0,0,1-.219-7.953l44.047-5.793a4,4,0,0,1,1.039,7.93l-28.207,3.711a31.534,31.534,0,0,1-1.457,52.488A4,4,0,0,1,1562.644,702.794Z"/></g></svg>