<svg xmlns="http://www.w3.org/2000/svg" width="512pt" height="512pt" viewBox="-100 0 512 512.001"><path fill="#00efd1" d="M312.172 235.742v41.883h-28.707l-1.617-.25c1.12-6.96 1.617-14.043 1.617-21.375 0-6.836-.496-13.547-1.492-20.008l1.492-.25zm-66.985 106.63v143.16A26.41 26.41 0 0 1 218.72 512H65.989a26.41 26.41 0 0 1-26.47-26.469v-143.16l.993-.996c24.98 24.98 59.527 40.512 97.804 40.512h8.2c38.027 0 72.574-15.41 97.68-40.387l.124-.125zm0-315.903v143.164l-.992.992c-24.98-24.977-59.527-40.512-97.8-40.512h-8.204c-38.027 0-72.574 15.41-97.68 40.387l-.124.125-.992-.992V26.469A26.41 26.41 0 0 1 65.863 0H218.72c14.664.125 26.469 11.93 26.469 26.469zm0 0"/><path fill="#00acea" d="M283.34 235.992A134.015 134.015 0 0 1 284.832 256c0 7.207-.496 14.414-1.617 21.375-4.598 29.7-18.64 56.172-38.895 76.426l-.125.125c-25.105 24.976-59.652 40.387-97.68 40.387h-8.199c-38.277 0-72.824-15.532-97.804-40.512C15.535 328.699 0 294.148 0 256c0-38.277 15.535-72.824 40.512-97.805l.125-.125c25.105-24.976 59.652-40.386 97.68-40.386h8.199c38.277 0 72.824 15.535 97.804 40.511 20.504 20.633 34.547 47.598 39.02 77.797Zm0 0"/><path fill="#fedb41" d="M190.508 274.27h-53.934c-6.832 0-12.426-5.594-12.426-12.43v-77.793c0-6.836 5.594-12.43 12.426-12.43 6.836 0 12.43 5.594 12.43 12.43v65.367h41.508c6.832 0 12.425 5.59 12.425 12.426s-5.468 12.43-12.43 12.43Zm0 0"/></svg>